<mxfile host="app.diagrams.net" modified="2024-05-24T15:46:10.513Z" agent="Mozilla/5.0 (Macintosh; Intel Mac OS X 10_15_7) AppleWebKit/537.36 (KHTML, like Gecko) Chrome/124.0.0.0 Safari/537.36" version="24.4.6" etag="XHIhx97Y7TLmGZowFaTo" type="github">
  <diagram name="Page-1" id="4qLyeH5xk9e5qJ2zIVJR">
    <mxGraphModel>
      <root>
        <mxCell id="0" />
        <mxCell id="1" parent="0" />
      </root>
    </mxGraphModel>
  </diagram>
</mxfile>
